<?xml version="1.0" standalone="no"?>
<!DOCTYPE svg PUBLIC "-//W3C//DTD SVG 20010904//EN"
 "http://www.w3.org/TR/2001/REC-SVG-20010904/DTD/svg10.dtd">
<svg version="1.0" xmlns="http://www.w3.org/2000/svg"
 width="219.000000pt" height="230.000000pt" viewBox="0 0 219.000000 230.000000"
 preserveAspectRatio="xMidYMid meet">

<g transform="translate(0.000000,230.000000) scale(0.100000,-0.100000)"
fill="#000000" stroke="none">
<path d="M1281 2167 c-6 -16 -11 -40 -10 -55 1 -22 4 -19 15 18 16 51 12 80
-5 37z"/>
<path d="M1189 2041 c-24 -16 -57 -41 -74 -55 -26 -22 -27 -25 -10 -25 20 0
64 24 123 68 62 47 30 57 -39 12z"/>
<path d="M1664 1985 c-7 -19 -14 -53 -14 -75 0 -48 -13 -77 -47 -105 l-25 -20
42 -48 c62 -70 75 -74 108 -39 23 24 39 31 92 37 107 12 110 15 108 82 l-2 58
-3 -52 -4 -51 -72 -9 -72 -9 -53 51 -52 50 6 77 7 77 56 4 56 3 -58 2 c-57 2
-58 2 -73 -33z"/>
<path d="M1392 1945 c-101 -44 -24 -149 110 -149 125 -1 162 96 55 145 -50 22
-119 24 -165 4z"/>
<path d="M1131 1907 c47 -44 182 -117 214 -117 36 0 -44 67 -137 114 -113 58
-138 59 -77 3z"/>
<path d="M913 1925 c-48 -34 -144 -205 -115 -205 25 0 155 200 140 215 -2 3
-14 -2 -25 -10z"/>
<path d="M953 1907 c11 -69 103 -232 166 -291 29 -28 31 -29 31 -8 0 52 -110
251 -171 307 l-32 30 6 -38z"/>
<path d="M1765 1860 c-22 -22 -35 -40 -29 -40 13 0 79 68 73 75 -3 2 -23 -13
-44 -35z"/>
<path d="M1715 1859 c-4 -6 -5 -12 -2 -15 2 -3 7 2 10 11 7 17 1 20 -8 4z"/>
<path d="M1764 1804 c-18 -14 -18 -15 4 -4 12 6 22 13 22 15 0 8 -5 6 -26 -11z"/>
<path d="M1396 1772 c-3 -3 -20 -6 -37 -7 -34 -3 -75 -21 -99 -45 -24 -24 -52
-71 -46 -77 3 -4 0 -13 -6 -21 -14 -17 -17 -118 -4 -147 5 -11 8 -27 7 -36 -2
-20 126 -152 140 -144 5 4 15 3 22 -2 6 -4 24 -8 39 -9 15 -1 39 -4 53 -8 14
-4 25 -2 25 3 0 5 13 9 29 9 15 -1 41 5 57 12 32 14 94 88 94 111 0 8 4 19 9
25 13 13 20 103 9 110 -5 3 -7 12 -4 20 3 7 1 16 -5 20 -6 3 -8 13 -5 21 7 18
-49 93 -70 93 -8 0 -14 6 -14 13 0 18 -40 49 -56 43 -7 -3 -18 2 -23 11 -7 14
-12 15 -23 5 -8 -6 -18 -9 -22 -5 -9 9 -63 13 -70 5z m95 -36 c43 -10 67 -23
101 -57 25 -24 48 -55 51 -69 3 -14 11 -44 18 -67 11 -36 10 -50 -5 -98 -34
-108 -106 -148 -238 -131 -61 7 -77 16 -124 61 -91 86 -98 235 -15 322 30 31
43 37 101 46 45 7 54 7 111 -7z"/>
<path d="M661 1694 c-19 -8 -32 -17 -29 -19 6 -7 107 14 128 26 27 15 -63 9
-99 -7z"/>
<path d="M1752 1703 c-43 -17 -56 -145 -22 -213 50 -99 140 -65 140 53 0 70
-10 105 -40 137 -27 28 -49 35 -78 23z"/>
<path d="M407 1580 c-199 -36 -327 -122 -327 -220 0 -45 20 -73 73 -104 72
-43 165 -58 312 -54 113 4 141 8 218 35 l88 31 -99 -102 c-80 -82 -107 -118
-142 -188 -36 -73 -44 -100 -48 -162 -4 -67 -2 -82 22 -129 65 -135 220 -161
405 -69 55 27 101 63 176 134 l103 98 -25 -60 c-69 -173 -68 -411 3 -552 29
-56 61 -80 108 -80 92 0 175 111 211 281 23 112 20 448 -6 626 -11 77 -18 147
-16 156 4 13 -7 19 -53 28 -137 27 -261 165 -244 273 6 36 5 41 -7 31 -11 -8
-43 -7 -139 8 -141 22 -532 34 -613 19z m433 -20 c148 -15 250 -32 250 -40 0
-4 -53 -47 -117 -95 -192 -144 -351 -205 -532 -205 -252 1 -400 92 -319 196
61 78 152 121 303 143 84 12 302 13 415 1z m329 -159 c28 -54 122 -136 178
-156 27 -9 56 -20 65 -23 14 -6 10 -16 -29 -70 -52 -73 -54 -73 -160 -20 -76
37 -155 118 -188 190 -38 85 -37 86 35 141 l65 50 7 -37 c4 -20 17 -54 27 -75z
m-201 -139 c34 -76 130 -174 204 -212 34 -16 67 -30 74 -30 28 0 24 -22 -13
-70 -35 -46 -41 -50 -72 -46 -136 20 -315 199 -338 339 -5 30 -1 36 49 75 52
41 53 41 62 19 5 -12 21 -46 34 -75z m-218 -86 c0 -29 73 -158 118 -207 53
-59 146 -123 204 -141 21 -6 38 -14 38 -18 0 -4 -23 -29 -51 -55 -58 -54 -63
-54 -175 0 -113 55 -207 168 -245 293 l-12 43 53 54 c51 51 70 60 70 31z m711
-131 c9 -62 14 -189 14 -335 0 -196 -3 -246 -18 -299 -40 -143 -111 -231 -183
-231 -85 0 -140 136 -138 340 1 129 20 210 80 336 44 92 214 322 224 303 4 -8
14 -59 21 -114z m-849 -153 c49 -104 152 -190 283 -237 17 -6 11 -12 -35 -33
-77 -37 -190 -43 -247 -13 -113 57 -143 185 -77 331 26 58 29 61 37 39 5 -13
23 -52 39 -87z"/>
<path d="M535 1505 c-5 -2 -22 -6 -37 -9 -16 -4 -28 -11 -28 -18 0 -13 248 -3
405 17 l100 12 -215 1 c-118 0 -219 -1 -225 -3z"/>
<path d="M601 1380 c-228 -35 -395 -90 -234 -77 62 5 400 81 412 93 8 8 -55 2
-178 -16z"/>
<path d="M1417 1005 c-19 -103 -30 -272 -28 -424 1 -74 21 -34 32 65 11 104 8
422 -4 359z"/>
<path d="M1282 753 c-36 -138 -72 -310 -72 -347 0 -41 17 -30 34 22 24 73 82
429 72 439 -2 2 -17 -49 -34 -114z"/>
<path d="M1715 1399 c34 -96 121 -219 155 -219 27 0 120 124 120 159 0 23 -47
-27 -87 -92 l-36 -57 -23 57 c-29 70 -111 193 -130 193 -11 0 -11 -7 1 -41z"/>
<path d="M2025 1364 l-30 -14 44 5 c24 3 51 10 60 15 27 16 -40 11 -74 -6z"/>
<path d="M1558 1180 c31 -30 93 -69 153 -100 147 -73 185 -66 82 15 -68 54
-228 135 -263 135 -23 -1 -21 -5 28 -50z"/>
<path d="M1776 987 c-33 -17 -80 -51 -105 -74 -38 -35 -42 -42 -25 -43 39 0
204 114 204 142 0 13 -12 9 -74 -25z"/>
<path d="M1613 820 c-19 -55 -27 -114 -16 -107 14 9 35 89 31 118 -3 22 -5 21
-15 -11z"/>
</g>
</svg>
