<?xml version="1.0" standalone="no"?>
<!DOCTYPE svg PUBLIC "-//W3C//DTD SVG 20010904//EN"
 "http://www.w3.org/TR/2001/REC-SVG-20010904/DTD/svg10.dtd">
<svg version="1.0" xmlns="http://www.w3.org/2000/svg"
 width="640.000000pt" height="360.000000pt" viewBox="0 0 640.000000 360.000000"
 preserveAspectRatio="xMidYMid meet">

<g transform="translate(0.000000,360.000000) scale(0.100000,-0.100000)"
fill="#000000" stroke="none">
<path d="M3187 2524 c-4 -4 -7 -22 -7 -41 0 -18 -6 -49 -14 -68 -26 -61 -74
-70 -151 -29 -35 18 -51 22 -59 14 -13 -13 -4 -29 81 -138 l62 -80 84 5 c49 3
92 1 102 -5 16 -8 26 0 68 57 27 36 65 83 84 105 31 33 33 40 21 53 -13 12
-21 11 -63 -11 -98 -53 -150 -24 -164 88 -6 48 -24 69 -44 50z m114 -210 c21
-4 39 -9 39 -13 -1 -3 -11 -19 -24 -34 -22 -27 -27 -28 -110 -29 -85 -1 -89 0
-112 28 -13 16 -23 32 -24 35 0 4 19 9 41 13 27 4 51 17 68 35 l26 28 28 -29
c17 -17 44 -30 68 -34z"/>
<path d="M2683 2331 c-12 -6 -29 -22 -39 -36 -36 -56 37 -116 115 -95 38 10
76 41 65 53 -4 3 -19 0 -35 -8 -37 -19 -83 -19 -99 1 -23 26 11 49 74 49 134
-2 279 -138 321 -303 22 -85 17 -136 -13 -140 -13 -2 -30 2 -38 8 -8 8 -14 8
-14 2 0 -18 61 -62 85 -62 33 0 45 27 45 98 0 161 -109 341 -247 408 -59 29
-178 42 -220 25z"/>
<path d="M3553 2326 c-60 -19 -103 -48 -160 -109 -83 -88 -133 -210 -133 -325
0 -65 13 -92 45 -92 25 0 85 44 85 63 0 8 -4 7 -12 -1 -7 -7 -22 -12 -35 -12
-31 0 -39 37 -25 113 16 87 57 164 121 228 93 92 217 134 271 91 21 -17 22
-22 11 -36 -17 -20 -63 -21 -100 -1 -34 17 -47 9 -24 -17 65 -72 220 -11 169
67 -9 14 -28 30 -42 35 -35 14 -121 11 -171 -4z"/>
<path d="M2230 2181 c-113 -17 -165 -38 -223 -90 -110 -99 -52 -248 128 -332
l62 -30 -19 -37 c-50 -96 24 -200 167 -237 131 -33 279 -10 428 67 90 47 97
60 12 23 -168 -75 -382 -74 -511 0 -55 32 -72 72 -52 123 13 34 17 37 49 35
165 -12 280 -14 346 -7 l78 8 -130 7 c-129 6 -251 25 -260 39 -5 9 61 35 125
49 62 14 172 13 255 -3 39 -8 72 -13 73 -11 2 2 -27 13 -65 25 -137 43 -300
37 -411 -17 l-53 -25 -54 26 c-70 35 -151 108 -165 150 -60 183 402 247 700
96 107 -55 254 -182 265 -229 8 -39 60 -98 108 -124 33 -17 59 -22 122 -22 94
0 144 22 194 82 17 20 33 34 37 30 9 -9 44 -111 39 -115 -14 -14 -130 -34
-225 -39 -110 -5 -209 4 -292 27 -36 10 -36 11 -26 48 6 20 17 50 25 66 24 46
-7 27 -44 -27 -36 -54 -53 -121 -53 -213 0 -192 118 -438 254 -528 31 -21 58
-48 66 -66 16 -38 24 -38 40 0 8 18 35 45 66 66 101 67 204 239 239 398 34
152 6 309 -65 376 -25 24 -29 32 -21 52 17 44 163 168 253 214 183 93 460 117
610 52 50 -21 108 -77 108 -104 0 -57 -78 -142 -172 -188 l-57 -28 -53 25
c-75 36 -164 51 -266 44 -75 -5 -220 -42 -209 -53 2 -2 35 3 73 11 81 17 170
19 245 5 72 -14 142 -41 132 -51 -14 -14 -199 -39 -293 -40 -80 -1 -82 -2 -40
-11 47 -9 311 -4 367 7 30 7 34 4 49 -28 47 -98 -62 -175 -259 -185 -114 -5
-194 8 -289 48 -38 15 -65 24 -62 18 13 -20 169 -88 241 -104 181 -40 375 16
419 122 19 45 18 73 -5 117 l-18 36 62 30 c144 67 218 189 171 279 -51 97
-178 146 -376 145 -210 -1 -401 -69 -545 -193 l-70 -61 -10 58 c-13 69 -33
123 -47 123 -6 0 -8 -13 -4 -32 4 -18 9 -72 13 -120 5 -81 3 -92 -21 -141 -35
-73 -82 -99 -179 -100 -102 0 -157 33 -192 115 -19 47 -20 159 -1 221 13 43
12 57 -4 57 -12 0 -33 -59 -45 -123 l-10 -58 -70 61 c-85 75 -216 142 -335
169 -100 23 -242 33 -320 22z m925 -648 c123 -5 260 9 318 32 16 7 18 3 15
-36 l-3 -44 -70 -19 c-53 -14 -105 -18 -215 -18 -110 0 -162 4 -215 18 l-70
19 -3 41 -3 42 58 -15 c32 -8 117 -17 188 -20z m-57 -174 c100 -12 191 -7 334
17 l37 6 -12 -37 c-13 -43 -27 -50 -124 -65 -92 -13 -172 -13 -270 1 -96 13
-106 19 -121 64 l-11 37 32 -6 c18 -3 78 -11 135 -17z m102 -178 c47 0 108 4
135 9 28 4 52 6 54 5 2 -2 -10 -22 -25 -43 -32 -45 -55 -52 -164 -52 -109 0
-132 7 -163 50 -15 21 -27 40 -27 42 0 3 24 1 53 -3 28 -4 90 -8 137 -8z"/>
</g>
</svg>
