<?xml version="1.0" standalone="no"?>
<!DOCTYPE svg PUBLIC "-//W3C//DTD SVG 20010904//EN"
 "http://www.w3.org/TR/2001/REC-SVG-20010904/DTD/svg10.dtd">
<svg version="1.0" xmlns="http://www.w3.org/2000/svg"
 width="500.000000pt" height="500.000000pt" viewBox="0 0 500.000000 500.000000"
 preserveAspectRatio="xMidYMid meet">

<g transform="translate(0.000000,500.000000) scale(0.100000,-0.100000)"
fill="#000000" stroke="none">
<path d="M1866 3779 c-8 -12 -12 -27 -9 -35 3 -7 43 -28 90 -45 81 -31 175
-90 216 -136 14 -16 26 -19 66 -15 51 5 151 -21 151 -39 0 -5 -25 -20 -55 -33
-86 -39 -121 -121 -76 -177 l19 -24 -39 -33 c-48 -42 -84 -101 -102 -170 l-13
-53 -52 59 c-54 62 -133 122 -162 122 -28 0 -42 67 -25 115 8 22 14 73 15 114
0 70 -2 75 -33 106 -24 24 -46 35 -81 40 -52 8 -70 -1 -64 -31 3 -15 13 -19
55 -20 77 -2 87 -8 80 -49 -3 -19 -17 -50 -31 -68 -57 -74 -55 -115 8 -184 25
-28 32 -43 25 -53 -5 -8 -9 -18 -9 -22 0 -18 57 -71 108 -99 131 -73 170 -102
180 -136 6 -18 7 -33 3 -33 -3 0 -105 54 -225 120 -444 245 -594 316 -791 379
-359 115 -678 102 -746 -31 -27 -54 -24 -105 12 -176 42 -85 126 -165 250
-239 l104 -62 11 -58 c45 -233 248 -376 534 -376 169 0 279 29 553 149 151 66
275 111 281 102 1 -1 0 -26 -2 -54 l-4 -51 -76 -6 c-168 -13 -353 -83 -382
-144 -11 -23 -24 -33 -48 -38 -83 -16 -187 -84 -194 -126 -2 -15 -20 -28 -62
-45 -71 -29 -108 -60 -104 -89 5 -36 41 -29 77 15 48 60 85 80 121 67 44 -17
111 14 182 85 34 32 68 58 77 57 43 -4 65 6 155 66 86 57 196 105 241 105 30
0 24 -20 -9 -34 -114 -48 -295 -203 -372 -320 -34 -51 -39 -67 -39 -116 0 -47
-5 -63 -29 -94 -52 -69 -96 -164 -96 -210 0 -23 5 -47 11 -53 7 -7 -3 -30 -34
-79 -55 -84 -69 -131 -56 -180 9 -32 13 -35 42 -32 l32 3 1 72 c1 58 7 83 30
130 25 50 34 58 69 68 65 17 109 104 122 243 5 54 9 63 29 68 35 9 51 32 104
155 46 104 97 196 105 187 1 -1 -4 -34 -13 -73 -23 -104 -23 -419 0 -502 56
-200 181 -351 421 -507 l87 -57 88 57 c268 175 395 344 432 577 15 94 8 339
-14 437 -8 36 -12 67 -11 68 8 9 59 -83 105 -188 48 -110 84 -160 116 -160 10
0 14 -12 14 -37 0 -84 46 -221 84 -252 9 -8 31 -16 49 -20 27 -5 37 -15 61
-64 24 -48 29 -72 30 -130 l1 -72 32 -3 c29 -3 33 0 42 32 13 49 -1 96 -56
180 -31 49 -41 72 -34 79 6 6 11 30 11 53 0 46 -44 141 -96 210 -24 31 -29 47
-29 94 0 49 -5 65 -39 116 -79 119 -256 272 -372 320 -42 18 -35 38 9 29 77
-15 135 -41 224 -101 89 -59 111 -69 154 -65 9 1 43 -25 77 -57 71 -71 138
-102 182 -85 36 13 73 -7 121 -66 38 -48 79 -57 79 -18 0 32 -35 62 -106 91
-42 17 -60 30 -62 45 -7 42 -111 110 -194 126 -24 5 -37 15 -48 38 -29 61
-214 131 -382 144 l-76 6 -4 51 c-2 28 -3 53 -2 54 6 9 130 -36 281 -102 274
-120 386 -150 553 -150 287 1 489 144 534 377 l11 58 105 62 c220 131 330 309
257 418 -53 79 -124 103 -302 103 -312 -1 -576 -95 -1139 -403 -160 -88 -299
-163 -308 -166 -15 -6 -15 -3 -6 29 10 30 26 43 125 102 100 59 163 111 163
132 0 4 -4 14 -9 22 -7 10 0 25 25 53 63 69 65 110 8 184 -14 18 -28 49 -31
68 -7 41 3 47 80 49 42 1 52 5 55 20 6 30 -12 39 -64 31 -35 -5 -57 -16 -81
-40 -31 -31 -33 -36 -33 -106 1 -41 7 -92 15 -114 17 -48 3 -115 -25 -115 -29
0 -108 -60 -162 -122 l-52 -59 -13 53 c-18 69 -54 128 -102 170 l-39 33 19 24
c24 30 24 75 -1 116 -17 27 -35 40 -109 75 -30 14 -20 29 30 45 32 11 69 16
100 13 43 -5 51 -2 76 24 45 47 129 98 210 127 84 31 100 47 77 79 -35 50
-119 11 -235 -107 l-85 -88 -67 -6 c-37 -3 -88 -15 -113 -26 -39 -18 -51 -19
-94 -9 -37 9 -59 8 -88 0 -34 -10 -46 -9 -85 8 -26 12 -76 23 -113 27 l-66 6
-87 88 c-116 118 -201 156 -235 108z m640 -325 c-14 -15 -31 -45 -38 -68 -6
-22 -12 -42 -12 -43 -1 -1 -13 -4 -29 -8 -25 -7 -27 -5 -27 24 0 65 48 121
104 121 l29 0 -27 -26z m-179 -59 c-3 -7 -15 -19 -26 -25 -29 -15 -28 13 1 42
22 22 36 13 25 -17z m388 -6 c9 -28 3 -31 -23 -13 -12 8 -22 24 -22 35 0 16 3
18 19 9 11 -5 23 -19 26 -31z m-1885 -19 c54 -9 70 -16 93 -42 15 -18 27 -36
27 -40 0 -12 -89 -9 -151 6 -55 12 -141 56 -154 76 -8 13 100 13 185 0z m3525
0 c-13 -20 -99 -64 -154 -76 -62 -15 -151 -18 -151 -6 0 4 12 22 28 40 21 25
38 34 82 41 79 12 203 13 195 1z m-3741 -42 l54 -41 -28 -60 c-16 -32 -31 -61
-33 -64 -10 -9 -152 37 -164 54 -7 9 -13 33 -13 53 0 42 13 62 55 84 47 24 71
19 129 -26z m3905 22 c48 -24 63 -61 47 -110 -10 -31 -17 -36 -85 -57 -41 -13
-78 -22 -83 -21 -4 2 -21 30 -37 64 l-29 61 52 41 c58 46 81 50 135 22z
m-3365 -63 l61 -22 3 -58 c3 -64 8 -62 -84 -45 l-64 12 -38 75 c-20 42 -38 79
-40 83 -4 8 69 -12 162 -45z m2815 -34 l-40 -81 -63 -11 c-92 -16 -87 -18 -84
47 l3 57 110 37 c60 20 111 36 112 34 1 -1 -16 -39 -38 -83z m-1324 8 c59 -26
97 -60 136 -120 43 -66 36 -79 -17 -32 -69 61 -140 85 -249 85 -74 1 -97 -3
-132 -21 -73 -39 -113 -109 -113 -198 0 -73 41 -128 130 -173 l65 -34 -45 7
c-55 8 -147 48 -178 78 -101 94 -75 275 54 374 88 66 243 82 349 34z m-1845
-22 c19 -5 70 -9 112 -9 l77 0 19 -52 20 -53 -92 -3 c-79 -3 -254 13 -264 23
-8 8 11 66 30 90 15 19 25 24 42 19 11 -4 37 -11 56 -15z m3502 -10 c10 -13
21 -38 24 -55 l6 -31 -99 -13 c-54 -6 -135 -10 -179 -8 l-82 3 20 53 19 52 82
1 c45 0 102 6 127 13 56 16 59 16 82 -15z m-2919 -37 c37 -15 42 -27 31 -68
-5 -20 -7 -20 -75 -5 l-69 14 0 54 0 53 38 -16 c20 -9 54 -23 75 -32z m2347
-5 l0 -54 -70 -15 -70 -15 -6 36 c-4 19 -3 36 2 38 5 2 36 16 69 32 33 16 63
30 68 30 4 1 7 -23 7 -52z m-2105 -119 c74 -40 133 -73 132 -74 -3 -3 -287 92
-293 99 -8 8 6 47 17 47 6 0 70 -32 144 -72z m1910 51 c4 -11 4 -23 1 -26 -6
-6 -289 -102 -293 -99 -4 3 263 145 274 146 6 0 15 -9 18 -21z m-2905 -20 c57
-14 137 -22 247 -26 l161 -6 6 -30 c3 -16 6 -40 6 -52 0 -25 8 -23 -166 -46
l-91 -12 -101 58 c-110 64 -217 151 -172 140 14 -3 63 -15 110 -26z m3827 -13
c-26 -23 -93 -69 -148 -101 l-101 -58 -97 12 c-166 21 -161 19 -161 45 0 13 3
37 6 53 l6 30 161 6 c122 4 187 12 262 30 55 14 105 25 110 25 6 1 -11 -18
-38 -42z m-3044 -40 c56 -16 67 -28 67 -73 0 -21 -3 -24 -22 -19 -13 3 -96 6
-186 6 -121 0 -164 3 -166 13 -7 25 -22 138 -19 141 5 5 257 -48 326 -68z
m2494 2 c-5 -35 -11 -68 -12 -74 -2 -7 -57 -11 -161 -12 -87 -1 -171 -4 -186
-7 -26 -6 -28 -4 -28 23 0 17 7 37 15 46 8 8 75 28 147 45 173 39 168 38 204
40 l30 1 -9 -62z m-2306 -59 c86 -28 300 -111 296 -115 -1 -2 -30 4 -62 13
-33 8 -114 25 -180 37 l-120 23 -3 31 c-2 18 -1 32 1 32 2 0 33 -9 68 -21z
m1867 -11 c-3 -32 -4 -32 -83 -45 -44 -7 -125 -24 -180 -37 -55 -14 -101 -23
-103 -22 -5 5 339 134 361 135 5 1 7 -13 5 -31z m-2098 -72 c0 -3 -24 -12 -52
-21 -109 -36 -208 -96 -299 -182 l-87 -83 -31 37 c-51 62 -103 196 -83 215 16
15 237 36 390 37 89 1 162 -1 162 -3z m2682 -12 c67 -9 126 -19 130 -22 20
-19 -32 -153 -83 -215 l-31 -38 -82 79 c-87 84 -178 141 -285 180 -36 13 -68
25 -70 28 -11 11 312 2 421 -12z m-2386 -24 c55 -11 122 -26 149 -33 l50 -14
-65 -7 c-100 -11 -185 -33 -283 -73 -85 -34 -92 -36 -146 -25 -31 5 -83 20
-115 32 l-60 23 40 20 c70 36 243 87 325 96 4 1 51 -8 105 -19z m1914 -11 c80
-20 173 -54 203 -75 17 -11 12 -14 -40 -34 -32 -12 -83 -27 -113 -32 -53 -10
-61 -9 -146 25 -99 40 -185 62 -284 73 l-65 7 55 15 c206 53 250 56 390 21z
m-1526 -98 c3 -5 -8 -11 -25 -15 -16 -3 -118 -44 -227 -90 -226 -98 -344 -134
-457 -143 l-80 -6 48 42 c139 120 264 180 432 206 93 15 301 19 309 6z m1255
-15 c136 -30 251 -89 371 -192 l55 -47 -80 6 c-113 9 -230 45 -457 143 -109
46 -211 87 -227 90 -17 4 -28 11 -24 17 9 14 273 2 362 -17z m-2107 -31 c29
-13 77 -30 106 -36 28 -7 52 -15 52 -19 0 -3 -21 -22 -47 -42 -27 -20 -63 -52
-81 -71 l-34 -35 -61 14 c-64 15 -147 49 -147 59 0 17 46 69 97 110 30 25 56
45 58 45 2 0 27 -11 57 -25z m2711 -20 c61 -49 102 -100 92 -114 -7 -13 -109
-50 -162 -60 -39 -8 -44 -6 -75 26 -18 19 -54 51 -80 71 -27 20 -48 39 -48 42
0 4 24 12 53 19 28 6 75 22 102 35 28 14 53 25 57 25 3 1 31 -19 61 -44z
m-1596 -144 c135 -67 340 -43 439 51 40 37 49 25 34 -46 -13 -63 -53 -124
-102 -154 -41 -25 -138 -52 -188 -52 -54 0 -150 28 -193 56 -48 32 -93 102
-102 159 -9 63 1 73 39 37 17 -16 50 -39 73 -51z m20 -292 c131 -45 310 -25
423 46 l38 24 25 -27 c13 -15 30 -38 37 -51 10 -20 9 -26 -15 -51 -38 -40
-131 -87 -206 -105 -120 -28 -285 -13 -379 35 -23 12 -45 19 -48 15 -4 -3 -8
-37 -10 -76 l-4 -69 46 -21 c195 -86 486 -53 620 71 l46 43 0 -101 0 -101 -33
-25 c-59 -45 -163 -86 -264 -103 -111 -18 -234 -9 -338 27 -32 11 -59 19 -61
17 -7 -7 36 -110 59 -140 36 -47 119 -70 247 -70 113 1 203 26 281 79 29 19
57 37 62 41 5 3 -3 -18 -19 -48 -52 -97 -288 -309 -345 -309 -24 0 -157 95
-228 163 -81 79 -136 163 -164 252 -18 59 -22 93 -22 210 1 146 13 220 48 290
37 76 43 78 92 40 24 -18 75 -43 112 -56z"/>
</g>
</svg>
